# Blender v2.92.0 OBJ File: 'rod.blend'
# www.blender.org
mtllib rod.mtl
o Cylinder
v 0.000000 0.000000 -0.010000
v 0.000000 0.300000 -0.010000
v 0.001951 0.000000 -0.009808
v 0.001951 0.300000 -0.009808
v 0.003827 0.000000 -0.009239
v 0.003827 0.300000 -0.009239
v 0.005556 0.000000 -0.008315
v 0.005556 0.300000 -0.008315
v 0.007071 0.000000 -0.007071
v 0.007071 0.300000 -0.007071
v 0.008315 0.000000 -0.005556
v 0.008315 0.300000 -0.005556
v 0.009239 0.000000 -0.003827
v 0.009239 0.300000 -0.003827
v 0.009808 0.000000 -0.001951
v 0.009808 0.300000 -0.001951
v 0.010000 0.000000 -0.000000
v 0.010000 0.300000 -0.000000
v 0.009808 0.000000 0.001951
v 0.009808 0.300000 0.001951
v 0.009239 0.000000 0.003827
v 0.009239 0.300000 0.003827
v 0.008315 0.000000 0.005556
v 0.008315 0.300000 0.005556
v 0.007071 0.000000 0.007071
v 0.007071 0.300000 0.007071
v 0.005556 0.000000 0.008315
v 0.005556 0.300000 0.008315
v 0.003827 0.000000 0.009239
v 0.003827 0.300000 0.009239
v 0.001951 0.000000 0.009808
v 0.001951 0.300000 0.009808
v -0.000000 0.000000 0.010000
v -0.000000 0.300000 0.010000
v -0.001951 0.000000 0.009808
v -0.001951 0.300000 0.009808
v -0.003827 0.000000 0.009239
v -0.003827 0.300000 0.009239
v -0.005556 0.000000 0.008315
v -0.005556 0.300000 0.008315
v -0.007071 0.000000 0.007071
v -0.007071 0.300000 0.007071
v -0.008315 0.000000 0.005556
v -0.008315 0.300000 0.005556
v -0.009239 0.000000 0.003827
v -0.009239 0.300000 0.003827
v -0.009808 0.000000 0.001951
v -0.009808 0.300000 0.001951
v -0.010000 0.000000 -0.000000
v -0.010000 0.300000 -0.000000
v -0.009808 0.000000 -0.001951
v -0.009808 0.300000 -0.001951
v -0.009239 0.000000 -0.003827
v -0.009239 0.300000 -0.003827
v -0.008315 0.000000 -0.005556
v -0.008315 0.300000 -0.005556
v -0.007071 0.000000 -0.007071
v -0.007071 0.300000 -0.007071
v -0.005556 0.000000 -0.008315
v -0.005556 0.300000 -0.008315
v -0.003827 0.000000 -0.009239
v -0.003827 0.300000 -0.009239
v -0.001951 0.000000 -0.009808
v -0.001951 0.300000 -0.009808
vt 0.887559 0.032599
vt 0.887559 0.532599
vt 0.856309 0.532599
vt 0.856309 0.032599
vt 0.692608 0.494121
vt 0.692608 0.994121
vt 0.661358 0.994121
vt 0.661358 0.494121
vt 0.937500 0.500000
vt 0.937500 1.000000
vt 0.906250 1.000000
vt 0.906250 0.500000
vt 0.875000 1.000000
vt 0.875000 0.500000
vt 0.843750 1.000000
vt 0.843750 0.500000
vt 0.812500 1.000000
vt 0.812500 0.500000
vt 0.781250 1.000000
vt 0.781250 0.500000
vt 0.750000 1.000000
vt 0.750000 0.500000
vt 0.718750 1.000000
vt 0.718750 0.500000
vt 0.687500 1.000000
vt 0.687500 0.500000
vt 0.656250 1.000000
vt 0.656250 0.500000
vt 0.625000 1.000000
vt 0.625000 0.500000
vt 0.593750 1.000000
vt 0.593750 0.500000
vt 0.562500 1.000000
vt 0.562500 0.500000
vt 0.888248 0.488241
vt 0.888248 0.988241
vt 0.856998 0.988241
vt 0.856998 0.488241
vt 0.531250 0.500000
vt 0.531250 1.000000
vt 0.500000 1.000000
vt 0.500000 0.500000
vt 0.468750 1.000000
vt 0.468750 0.500000
vt 0.437500 1.000000
vt 0.437500 0.500000
vt 0.406250 1.000000
vt 0.406250 0.500000
vt 0.375000 1.000000
vt 0.375000 0.500000
vt 0.343750 1.000000
vt 0.343750 0.500000
vt 0.312500 1.000000
vt 0.312500 0.500000
vt 0.281250 1.000000
vt 0.281250 0.500000
vt 0.250000 1.000000
vt 0.250000 0.500000
vt 0.218750 1.000000
vt 0.218750 0.500000
vt 0.187500 1.000000
vt 0.187500 0.500000
vt 0.156250 1.000000
vt 0.156250 0.500000
vt 0.125000 1.000000
vt 0.125000 0.500000
vt 0.420984 0.006142
vt 0.420984 0.506142
vt 0.389734 0.506142
vt 0.389734 0.006142
vt 0.419498 0.494121
vt 0.419498 0.994121
vt 0.388248 0.994121
vt 0.388248 0.494121
vt 0.656726 0.697677
vt 0.610485 0.711526
vt 0.563666 0.716210
vt 0.518068 0.711549
vt 0.475444 0.697721
vt 0.437432 0.675257
vt 0.405493 0.645022
vt 0.380854 0.608177
vt 0.364462 0.566137
vt 0.356947 0.520519
vt 0.358598 0.473076
vt 0.369351 0.425630
vt 0.388793 0.380006
vt 0.416177 0.337956
vt 0.450450 0.301096
vt 0.490296 0.270844
vt 0.534184 0.248360
vt 0.580425 0.234510
vt 0.627245 0.229826
vt 0.672843 0.234488
vt 0.715466 0.248316
vt 0.753478 0.270780
vt 0.785417 0.301015
vt 0.810056 0.337860
vt 0.826448 0.379900
vt 0.833963 0.425517
vt 0.832312 0.472961
vt 0.821559 0.520406
vt 0.802117 0.566031
vt 0.774733 0.608081
vt 0.740460 0.644940
vt 0.700614 0.675193
vt 0.350216 0.502940
vt 0.350216 1.002940
vt 0.318966 1.002940
vt 0.318966 0.502940
vt 0.360305 0.508819
vt 0.360305 1.008819
vt 0.329055 1.008819
vt 0.329055 0.508819
vt 0.460147 0.495643
vt 0.467067 0.578096
vt 0.478887 0.656527
vt 0.495152 0.727920
vt 0.515237 0.789533
vt 0.538372 0.838998
vt 0.563665 0.874413
vt 0.590147 0.894418
vt 0.616798 0.898244
vt 0.642595 0.885744
vt 0.666546 0.857399
vt 0.687731 0.814297
vt 0.705335 0.758094
vt 0.718683 0.690952
vt 0.727262 0.615450
vt 0.730741 0.534489
vt 0.728987 0.451181
vt 0.722067 0.368728
vt 0.710247 0.290297
vt 0.693982 0.218904
vt 0.673896 0.157291
vt 0.650762 0.107826
vt 0.625468 0.072411
vt 0.598987 0.052406
vt 0.572336 0.048580
vt 0.546539 0.061080
vt 0.522588 0.089426
vt 0.501403 0.132528
vt 0.483798 0.188730
vt 0.470450 0.255873
vt 0.461872 0.331375
vt 0.458393 0.412336
vn 0.0980 0.0000 -0.9952
vn 0.2903 0.0000 -0.9569
vn 0.4714 0.0000 -0.8819
vn 0.6344 0.0000 -0.7730
vn 0.7730 0.0000 -0.6344
vn 0.8819 0.0000 -0.4714
vn 0.9569 0.0000 -0.2903
vn 0.9952 0.0000 -0.0980
vn 0.9952 0.0000 0.0980
vn 0.9569 0.0000 0.2903
vn 0.8819 0.0000 0.4714
vn 0.7730 0.0000 0.6344
vn 0.6344 0.0000 0.7730
vn 0.4714 0.0000 0.8819
vn 0.2903 0.0000 0.9569
vn 0.0980 0.0000 0.9952
vn -0.0980 0.0000 0.9952
vn -0.2903 0.0000 0.9569
vn -0.4714 0.0000 0.8819
vn -0.6344 0.0000 0.7730
vn -0.7730 0.0000 0.6344
vn -0.8819 0.0000 0.4714
vn -0.9569 0.0000 0.2903
vn -0.9952 0.0000 0.0980
vn -0.9952 0.0000 -0.0980
vn -0.9569 0.0000 -0.2903
vn -0.8819 0.0000 -0.4714
vn -0.7730 0.0000 -0.6344
vn -0.6344 0.0000 -0.7730
vn -0.4714 0.0000 -0.8819
vn 0.0000 1.0000 0.0000
vn -0.2903 0.0000 -0.9569
vn -0.0980 0.0000 -0.9952
vn 0.0000 -1.0000 0.0000
usemtl Material.001
s off
f 1/1/1 2/2/1 4/3/1 3/4/1
f 3/5/2 4/6/2 6/7/2 5/8/2
f 5/9/3 6/10/3 8/11/3 7/12/3
f 7/12/4 8/11/4 10/13/4 9/14/4
f 9/14/5 10/13/5 12/15/5 11/16/5
f 11/16/6 12/15/6 14/17/6 13/18/6
f 13/18/7 14/17/7 16/19/7 15/20/7
f 15/20/8 16/19/8 18/21/8 17/22/8
f 17/22/9 18/21/9 20/23/9 19/24/9
f 19/24/10 20/23/10 22/25/10 21/26/10
f 21/26/11 22/25/11 24/27/11 23/28/11
f 23/28/12 24/27/12 26/29/12 25/30/12
f 25/30/13 26/29/13 28/31/13 27/32/13
f 27/32/14 28/31/14 30/33/14 29/34/14
f 29/35/15 30/36/15 32/37/15 31/38/15
f 31/39/16 32/40/16 34/41/16 33/42/16
f 33/42/17 34/41/17 36/43/17 35/44/17
f 35/44/18 36/43/18 38/45/18 37/46/18
f 37/46/19 38/45/19 40/47/19 39/48/19
f 39/48/20 40/47/20 42/49/20 41/50/20
f 41/50/21 42/49/21 44/51/21 43/52/21
f 43/52/22 44/51/22 46/53/22 45/54/22
f 45/54/23 46/53/23 48/55/23 47/56/23
f 47/56/24 48/55/24 50/57/24 49/58/24
f 49/58/25 50/57/25 52/59/25 51/60/25
f 51/60/26 52/59/26 54/61/26 53/62/26
f 53/62/27 54/61/27 56/63/27 55/64/27
f 55/64/28 56/63/28 58/65/28 57/66/28
f 57/67/29 58/68/29 60/69/29 59/70/29
f 59/71/30 60/72/30 62/73/30 61/74/30
f 4/75/31 2/76/31 64/77/31 62/78/31 60/79/31 58/80/31 56/81/31 54/82/31 52/83/31 50/84/31 48/85/31 46/86/31 44/87/31 42/88/31 40/89/31 38/90/31 36/91/31 34/92/31 32/93/31 30/94/31 28/95/31 26/96/31 24/97/31 22/98/31 20/99/31 18/100/31 16/101/31 14/102/31 12/103/31 10/104/31 8/105/31 6/106/31
f 61/107/32 62/108/32 64/109/32 63/110/32
f 63/111/33 64/112/33 2/113/33 1/114/33
f 1/115/34 3/116/34 5/117/34 7/118/34 9/119/34 11/120/34 13/121/34 15/122/34 17/123/34 19/124/34 21/125/34 23/126/34 25/127/34 27/128/34 29/129/34 31/130/34 33/131/34 35/132/34 37/133/34 39/134/34 41/135/34 43/136/34 45/137/34 47/138/34 49/139/34 51/140/34 53/141/34 55/142/34 57/143/34 59/144/34 61/145/34 63/146/34
